Coordinates																															
version=1																															
nRows=27																															
nColumns=32																															
inDegrees=no																															
																															
"Units are S.I. units (second, meters, Newtons, ...)"																															
"If the header above contains a line with 'inDegrees', this indicates whether rotational values are in degrees (yes) or radians (no)."																															
																															
endheader																															
time	pelvis_tilt	pelvis_list	pelvis_rotation	pelvis_tx	pelvis_ty	pelvis_tz	hip_flexion_r	hip_adduction_r	hip_rotation_r	knee_angle_r	ankle_angle_r	subtalar_angle_r	mtp_angle_r	hip_flexion_l	hip_adduction_l	hip_rotation_l	knee_angle_l	ankle_angle_l	subtalar_angle_l	mtp_angle_l	lumbar_extension	lumbar_bending	lumbar_rotation	arm_flex_r	arm_add_r	arm_rot_r	elbow_flex_r	arm_flex_l	arm_add_l	arm_rot_l	elbow_flex_l
0.351214286	-0.049616594	-0.141760419	-0.054037633	0.679619472	0.945288417	0.511664914	0.175627626	0.203274563	-0.085693731	0.504011641	0.20533858	-0.043728374	0.061266468	0.521390164	-0.17909284	-0.025827997	1.141363856	0.265138777	-0.276999514	0.017347528	-0.097192898	0.123862452	0.021111306	0.020709958	-0.239115067	-0.044688996	0.559602348	0.005849913	-0.180587512	0.276595279	0.468235243
0.361857143	-0.054068697	-0.136870418	-0.058699236	0.677106577	0.946457843	0.511513422	0.15648512	0.197479331	-0.075889867	0.487332988	0.210010406	-0.031660373	0.066458221	0.542333141	-0.175784264	-0.037235556	1.079713658	0.275852519	-0.268598387	0.014931811	-0.099071273	0.118795557	0.033011912	0.027032926	-0.246356868	-0.040917768	0.571903033	0.00090484	-0.17494299	0.273895332	0.462939082
0.3725	-0.058751855	-0.132323611	-0.06351833	0.674531143	0.9472036	0.511389955	0.137377123	0.191988993	-0.065991135	0.470061132	0.213691844	-0.019853039	0.065953365	0.560185423	-0.173213356	-0.049119949	1.01156558	0.282432308	-0.258504746	0.011256506	-0.100938174	0.114110023	0.044475389	0.03446612	-0.253464562	-0.037474025	0.586175395	-0.00384101	-0.170358989	0.270079351	0.458803269
0.383142857	-0.06380828	-0.128478862	-0.068473198	0.671911755	0.947511023	0.511299596	0.118713121	0.187148862	-0.056325408	0.452828616	0.216934232	-0.008273755	0.061132109	0.575180108	-0.171606428	-0.060883265	0.93751369	0.284084809	-0.24613551	0.006676226	-0.102622099	0.110226598	0.055432261	0.043027627	-0.260328787	-0.034034533	0.602280378	-0.008478984	-0.166803467	0.26536884	0.4555225
0.393785714	-0.069388535	-0.125663837	-0.073527252	0.669269357	0.947368285	0.511243285	0.100871414	0.183249771	-0.047237005	0.436226057	0.220487794	0.00325607	0.053809138	0.587585092	-0.171138442	-0.071900138	0.858192139	0.280015203	-0.230849487	0.001684811	-0.103933581	0.107539403	0.06580088	0.052718738	-0.2668446	-0.030248086	0.620061863	-0.013099624	-0.164231887	0.25998422	0.452792969
0.404428571	-0.07556987	-0.123986702	-0.078677314	0.666635105	0.946761886	0.511212326	0.083943385	0.180357324	-0.038802756	0.420372827	0.224652744	0.014939847	0.045566629	0.597621715	-0.171767041	-0.08158035	0.774395114	0.270569868	-0.212293507	-0.002939689	-0.104731189	0.106218114	0.075549186	0.06355765	-0.272954526	-0.026009443	0.639351878	-0.017692483	-0.162568176	0.254267905	0.450415456
0.415071428	-0.082358375	-0.123350873	-0.083953388	0.664049747	0.945677218	0.511189338	0.067756509	0.178324	-0.030863932	0.404963819	0.229308467	0.027015997	0.037744001	0.605472504	-0.173254396	-0.08936932	0.687084917	0.257201459	-0.190385231	-0.006192683	-0.104920884	0.106222292	0.084693306	0.075579129	-0.278647048	-0.021442944	0.659973543	-0.022154023	-0.161708058	0.248666764	0.448290221
0.425714286	-0.08970912	-0.123706717	-0.089426537	0.661553599	0.944110901	0.511166458	0.052291043	0.176977527	-0.02365695	0.390162367	0.23441007	0.040004161	0.031099066	0.611443907	-0.175585361	-0.094774631	0.597649616	0.242116211	-0.165033806	-0.008073219	-0.104460198	0.107541282	0.093284403	0.088833264	-0.283941285	-0.016621903	0.681805243	-0.026430342	-0.161583903	0.243372333	0.446341478
0.436357143	-0.097536492	-0.124941637	-0.09514088	0.659188385	0.942072159	0.511138232	0.037564023	0.176068388	-0.01751182	0.376347767	0.240105304	0.054540411	0.025567455	0.616099711	-0.178872137	-0.097455745	0.508317646	0.226953279	-0.13627584	-0.009673206	-0.103325706	0.11008388	0.101331239	0.103357953	-0.288886527	-0.01157725	0.704806053	-0.030541976	-0.162181314	0.238276865	0.444531465
0.447	-0.105686901	-0.126750046	-0.100986186	0.656986206	0.939600024	0.51108653	0.023380336	0.175236527	-0.012420658	0.363545147	0.246482167	0.070931299	0.020387262	0.620656525	-0.183137811	-0.09801628	0.423890721	0.212151406	-0.103878339	-0.011687176	-0.101545545	0.113551197	0.108701915	0.119168857	-0.293521005	-0.006455734	0.728975935	-0.034526517	-0.163523123	0.23331286	0.44285392
0.457642857	-0.113916851	-0.128796181	-0.106749295	0.654964043	0.936768354	0.510986461	0.009494447	0.17409091	-0.008568887	0.351774311	0.253349319	0.089354385	0.0143208	0.626877078	-0.188346158	-0.098319252	0.351521679	0.200653152	-0.067087971	-0.013775787	-0.099244948	0.117603755	0.115204486	0.136309772	-0.297854639	-0.001479659	0.754287673	-0.038347097	-0.16563499	0.228544947	0.441316637
0.468285714	-0.121883211	-0.130734897	-0.112216484	0.653161668	0.93366206	0.510812661	-0.004453164	0.172258178	-0.005903674	0.340982977	0.260163922	0.109649605	0.005836075	0.635187306	-0.194027347	-0.099327481	0.293742512	0.192426466	-0.028199388	-0.015607702	-0.096608065	0.121849739	0.120664362	0.154723933	-0.301836824	0.003278346	0.780598994	-0.042038444	-0.168501512	0.2240051	0.439876923
0.478928571	-0.129178667	-0.132216089	-0.117180972	0.651635923	0.930371551	0.510539987	-0.018898553	0.16937963	-0.004188772	0.331069157	0.266156802	0.131425772	-0.006768263	0.645038459	-0.199414243	-0.1012769	0.249688866	0.185130715	0.00832293	-0.016939129	-0.093854299	0.125862597	0.12492353	0.174280455	-0.305376816	0.007853786	0.807688844	-0.045692748	-0.172078537	0.21969459	0.438455138
0.489571428	-0.135411014	-0.132919069	-0.121451522	0.650452483	0.926988154	0.510146204	-0.034211143	0.165150239	-0.003173678	0.322020703	0.270691731	0.154092328	-0.024507265	0.655737004	-0.203784245	-0.103746408	0.218387443	0.176285663	0.038503754	-0.017889347	-0.091176099	0.129234452	0.127858416	0.194703528	-0.308407332	0.012186217	0.83525112	-0.049470752	-0.176296436	0.215767776	0.436919683
0.500214286	-0.140219359	-0.132579476	-0.124866292	0.649693226	0.923604744	0.509614629	-0.050630243	0.159366827	-0.002587774	0.313998835	0.27339493	0.176687165	-0.047079713	0.666350769	-0.206511222	-0.105089114	0.198788255	0.16323384	0.059385373	-0.019267128	-0.088713118	0.131594411	0.129410534	0.215443643	-0.310907414	0.016027906	0.862820461	-0.053661796	-0.18103807	0.212672351	0.435041227
0.510857143	-0.143250938	-0.130940166	-0.127266491	0.649441421	0.920313775	0.508929238	-0.068375994	0.151840013	-0.002160832	0.307184243	0.273924936	0.19820609	-0.074030901	0.675929489	-0.20698139	-0.103541085	0.189843408	0.143352251	0.068167772	-0.02194808	-0.086595633	0.132576976	0.129528717	0.235921193	-0.312861519	0.019111147	0.889913497	-0.058565263	-0.186180683	0.210883095	0.432581193
0.5215	-0.144379634	-0.127787199	-0.128480831	0.649759212	0.917178483	0.508075629	-0.087445883	0.142495413	-0.001753071	0.301756437	0.272078177	0.217629892	-0.104636485	0.683952615	-0.204654809	-0.098359791	0.191031524	0.116691507	0.064178948	-0.0262825	-0.084784856	0.131877709	0.128161951	0.255590052	-0.314264452	0.021221605	0.916042237	-0.064263439	-0.191588094	0.210585016	0.429386651
0.532142857	-0.143804533	-0.122968635	-0.12832009	0.650678426	0.914220187	0.507041729	-0.107517908	0.131423655	-0.001411885	0.297893232	0.267848929	0.233917799	-0.137785218	0.690516166	-0.199097485	-0.090268261	0.202586701	0.087138457	0.049800266	-0.031866941	-0.082999423	0.129279772	0.125259439	0.273952123	-0.315125867	0.022221528	0.940712043	-0.070527108	-0.197104857	0.211547344	0.425427558
0.542785714	-0.141749715	-0.116337596	-0.12659472	0.652228355	0.911456997	0.505815739	-0.12824437	0.118728372	-0.001199631	0.295774982	0.261246895	0.246028462	-0.172340736	0.695762588	-0.189884779	-0.080102815	0.224792647	0.058870753	0.027646311	-0.038238472	-0.080940152	0.124573367	0.120771383	0.290513838	-0.315456514	0.021980221	0.963428178	-0.077102778	-0.202574006	0.213506685	0.420683759
0.553428571	-0.138421243	-0.107784179	-0.123257985	0.654411886	0.908911522	0.504398133	-0.149142187	0.104547018	-0.001246064	0.295941779	0.252300034	0.253066766	-0.207810943	0.699669559	-0.176749374	-0.068704148	0.256750736	0.035303617	-3.85E-05	-0.044767571	-0.078433194	0.117584546	0.114780317	0.30489129	-0.315260566	0.020520707	0.983751434	-0.083709119	-0.207834724	0.216133048	0.415187625
0.564071428	-0.133989141	-0.097272405	-0.118548711	0.657179118	0.906615354	0.502813933	-0.169457549	0.089084687	-0.00181571	0.299653047	0.241072815	0.254430018	-0.244992026	0.701885287	-0.159738523	-0.0569217	0.295198141	0.018327708	-0.031749838	-0.050491606	-0.075555319	0.108211054	0.107633381	0.316919852	-0.314529044	0.018173389	1.001353641	-0.090009147	-0.212718484	0.218963274	0.409076558
0.574714286	-0.128618743	-0.084775307	-0.112740416	0.660473799	0.904601234	0.501091112	-0.188404194	0.072554016	-0.003189511	0.308254397	0.227632674	0.249550982	-0.284832171	0.702018718	-0.138937882	-0.045604483	0.336593803	0.009649993	-0.06607177	-0.054409961	-0.072413605	0.096359578	0.09970975	0.326461174	-0.313251507	0.01530498	1.015920144	-0.095659904	-0.217055958	0.221519569	0.402500347
0.585357143	-0.122382547	-0.070315804	-0.106269433	0.664224496	0.902919452	0.499264528	-0.205140035	0.055051333	-0.005735514	0.323225234	0.211728401	0.238015786	-0.327974751	0.699667176	-0.114655819	-0.035262663	0.378117438	0.010455145	-0.101638163	-0.055905644	-0.069227107	0.082031845	0.091513971	0.333418279	-0.311441874	0.012220673	1.027205044	-0.100468722	-0.220704843	0.223603508	0.395582647
0.596	-0.115142017	-0.054030203	-0.09994221	0.668325267	0.901660185	0.497384691	-0.218696113	0.036408568	-0.010019775	0.346349115	0.192384453	0.219759162	-0.374370287	0.694401566	-0.087706948	-0.025636142	0.418587246	0.020740573	-0.137196268	-0.055233703	-0.066469407	0.065445616	0.083835587	0.337788248	-0.309169433	0.009085802	1.035118753	-0.104584566	-0.22358427	0.22565173	0.388387706
0.606642857	-0.106741788	-0.036074008	-0.094610295	0.672664917	0.9009155	0.495503568	-0.228088477	0.016412832	-0.016609686	0.379394967	0.168510551	0.194778128	-0.423717766	0.685788552	-0.058967919	-0.016407106	0.457010289	0.040208002	-0.171528508	-0.052765433	-0.064632018	0.046855504	0.077492285	0.339584557	-0.306509793	0.00604941	1.039599059	-0.108203523	-0.225625226	0.228167513	0.380971662
0.617285714	-0.09728266	-0.016675858	-0.090999575	0.677122266	0.900702189	0.493658407	-0.232386042	-0.0053205	-0.025532276	0.422955432	0.138712943	0.163362402	-0.472483065	0.673382655	-0.029150473	-0.008269591	0.491613197	0.065827955	-0.203822109	-0.04878318	-0.063848266	0.026661298	0.073068353	0.338891159	-0.303510894	0.00332357	1.040703527	-0.111519588	-0.226828546	0.231215454	0.373392825
0.627928571	-0.087101178	0.003865388	-0.089704314	0.681566855	0.900965083	0.491872371	-0.230722844	-0.02932708	-0.036277022	0.476503767	0.101363125	0.126076066	-0.514067977	0.656746492	0.001184858	-0.002830143	0.519920704	0.09193454	-0.23369609	-0.043492621	-0.063920865	0.005396129	0.070916264	0.335852898	-0.300195212	0.001173858	1.03860068	-0.114729052	-0.227260429	0.234457229	0.365708497
